<svg width="220" height="300" viewBox="0 0 220 300" fill="none" xmlns="http://www.w3.org/2000/svg">
<path d="M0 12C0 5.37259 5.37258 0 12 0H208C214.627 0 220 5.37258 220 12V288C220 294.627 214.627 300 208 300H12C5.37258 300 0 294.627 0 288V12Z" fill="#E7E7E7"/>
<path d="M153.732 106.797H66.8066C64.7108 106.797 62.7009 107.629 61.2189 109.111C59.7369 110.593 58.9044 112.603 58.9044 114.699V185.819C58.9044 187.915 59.7369 189.925 61.2189 191.407C62.7009 192.889 64.7108 193.722 66.8066 193.722H153.732C155.827 193.722 157.837 192.889 159.319 191.407C160.801 189.925 161.634 187.915 161.634 185.819V114.699C161.634 112.603 160.801 110.593 159.319 109.111C157.837 107.629 155.827 106.797 153.732 106.797ZM153.732 114.699V165.446L140.856 152.575C140.122 151.841 139.251 151.259 138.292 150.862C137.333 150.465 136.305 150.26 135.268 150.26C134.23 150.26 133.202 150.465 132.243 150.862C131.284 151.259 130.413 151.841 129.679 152.575L119.801 162.453L98.07 140.722C96.5882 139.241 94.579 138.409 92.4841 138.409C90.3892 138.409 88.38 139.241 86.8982 140.722L66.8066 160.814V114.699H153.732ZM66.8066 171.99L92.489 146.308L132 185.819H66.8066V171.99ZM153.732 185.819H143.177L125.397 168.039L135.275 158.161L153.732 176.623V185.819ZM118.171 136.43C118.171 135.258 118.519 134.112 119.17 133.137C119.822 132.163 120.747 131.403 121.83 130.955C122.913 130.506 124.105 130.389 125.254 130.617C126.404 130.846 127.46 131.41 128.289 132.239C129.118 133.068 129.682 134.124 129.911 135.274C130.14 136.424 130.022 137.615 129.574 138.698C129.125 139.781 128.365 140.707 127.391 141.358C126.416 142.009 125.27 142.357 124.098 142.357C122.526 142.357 121.019 141.732 119.907 140.621C118.796 139.509 118.171 138.002 118.171 136.43Z" fill="#808080"/>
</svg>
